<?xml version="1.0" encoding="UTF-8" standalone="no"?>
<!-- Created with Inkscape (http://www.inkscape.org/) -->

<svg
   width="223.351"
   height="223.351"
   viewBox="0 0 59.094951 59.094952"
   version="1.1"
   id="svg5"
   xmlns="http://www.w3.org/2000/svg"
   xmlns:svg="http://www.w3.org/2000/svg">
  <defs
     id="defs2">
    <clipPath
       clipPathUnits="userSpaceOnUse"
       id="clipPath1713-3-9-3-2-2-6">
      <path
         d="M 0,841.89 H 595.28 V 0 H 0 Z"
         id="path1711-6-3-6-4-9-21" />
    </clipPath>
  </defs>
  <g
     id="layer1"
     transform="translate(-313.95977,-200.89944)">
    <path
       style="fill:#00aa88;fill-opacity:1;stroke:none;stroke-width:0.696345;stroke-linecap:butt;stroke-linejoin:miter;stroke-miterlimit:4;stroke-dasharray:none;stroke-opacity:1"
       d="m 324.93208,242.64662 h 8.64534 v 4.11953 c 0,1.34292 -1.16179,1.73575 -1.73569,1.73575 h -9.19044 c -0.98436,0 -2.63688,-0.33039 -2.63688,-2.35436 0,-1.0613 0,-4.95181 0,-4.95181 0,-2.05778 1.38526,-2.77192 2.84667,-2.77192 h 8.6318 c 1.21658,0 2.10774,0.79636 2.10774,2.10773 h -9.978 v 5.94885 h 6.72073 v -1.73055 h -3.15094 c -1.28654,0 -2.27008,-1.32345 -2.26033,-2.10322 z"
       id="path17721-2-1-9-5-7-0-4" />
    <path
       style="fill:#00aa88;fill-opacity:1;stroke:none;stroke-width:0.696345;stroke-linecap:butt;stroke-linejoin:miter;stroke-miterlimit:4;stroke-dasharray:none;stroke-opacity:1"
       d="m 324.93208,230.36386 h 8.64534 v 4.11957 c 0,1.34292 -1.16179,1.7357 -1.73569,1.7357 h -9.19044 c -0.98436,0 -2.63688,-0.33034 -2.63688,-2.35431 0,-1.06134 0,-4.95185 0,-4.95185 0,-2.05774 1.38526,-2.77188 2.84667,-2.77188 h 8.6318 c 1.21658,0 2.10774,0.79636 2.10774,2.10774 h -9.978 v 5.94879 h 6.72073 v -1.73054 h -3.15094 c -1.28654,0 -2.27008,-1.32341 -2.26033,-2.10322 z"
       id="path17721-2-0-2-0-3-7-4-8" />
    <g
       id="g1709-7-88-5-5-2-5"
       clip-path="url(#clipPath1713-3-9-3-2-2-6)"
       transform="matrix(-1.564735,0,0,-1.5647345,650.5766,912.90554)"
       style="fill:#00aa88;fill-opacity:1;stroke:none;stroke-opacity:1">
      <g
         id="g1715-5-5-6-4-2-1"
         transform="translate(299,453.666)"
         style="fill:#00aa88;fill-opacity:1;stroke:none;stroke-opacity:1" />
      <g
         id="g1719-3-0-2-8-2-2"
         transform="translate(299,453.666)"
         style="fill:#00aa88;fill-opacity:1;stroke:none;stroke-opacity:1" />
      <g
         id="g1723-5-9-9-1-0-97"
         transform="translate(283.667,447.3384)"
         style="fill:#00aa88;fill-opacity:1;stroke:none;stroke-opacity:1" />
      <g
         id="g1727-6-6-1-2-5-38"
         transform="translate(283.667,447.3384)"
         style="fill:#00aa88;fill-opacity:1;stroke:none;stroke-opacity:1" />
      <g
         id="g1731-2-3-2-8-5-0"
         transform="translate(288.0156,436.25)"
         style="fill:#00aa88;fill-opacity:1;stroke:none;stroke-opacity:1" />
      <g
         id="g1735-9-8-7-9-2-92"
         transform="translate(288.0156,436.25)"
         style="fill:#00aa88;fill-opacity:1;stroke:none;stroke-opacity:1" />
      <g
         id="g1739-1-5-0-3-9-3"
         transform="translate(301.042,429.604)"
         style="fill:#00aa88;fill-opacity:1;stroke:none;stroke-opacity:1" />
      <g
         id="g1743-2-61-9-6-0-1"
         transform="translate(301.042,429.604)"
         style="fill:#00aa88;fill-opacity:1;stroke:none;stroke-opacity:1" />
      <g
         id="g1747-7-1-3-8-2-87"
         transform="translate(305.8545,434)"
         style="fill:#00aa88;fill-opacity:1;stroke:none;stroke-opacity:1" />
      <g
         id="g1751-0-5-6-0-8-41"
         transform="translate(296.5469,412.7656)"
         style="fill:#00aa88;fill-opacity:1;stroke:none;stroke-opacity:1" />
      <g
         id="g1755-9-9-0-2-3-6"
         transform="translate(296.5469,412.7656)"
         style="fill:#00aa88;fill-opacity:1;stroke:none;stroke-opacity:1" />
      <g
         id="g1759-3-8-6-1-8-38"
         transform="translate(332.9375,442.7656)"
         style="fill:#00aa88;fill-opacity:1;stroke:none;stroke-opacity:1" />
      <g
         id="g1763-6-4-2-0-0-5"
         transform="translate(332.9375,442.7656)"
         style="fill:#00aa88;fill-opacity:1;stroke:none;stroke-opacity:1" />
      <g
         id="g1767-0-8-6-5-4-5"
         transform="translate(335.4531,446.1875)"
         style="fill:#00aa88;fill-opacity:1;stroke:none;stroke-opacity:1" />
      <g
         id="g1771-6-1-1-1-0-01"
         transform="translate(335.4531,446.1875)"
         style="fill:#00aa88;fill-opacity:1;stroke:none;stroke-opacity:1" />
      <g
         id="g1775-2-0-8-1-9-26"
         transform="translate(336.7187,450.6719)"
         style="fill:#00aa88;fill-opacity:1;stroke:none;stroke-opacity:1" />
      <g
         id="g1779-6-3-7-0-1-4"
         transform="translate(336.7187,450.6719)"
         style="fill:#00aa88;fill-opacity:1;stroke:none;stroke-opacity:1" />
      <g
         id="g1783-1-0-9-8-9-85"
         transform="translate(337.248,458.4639)"
         style="fill:#00aa88;fill-opacity:1;stroke:none;stroke-opacity:1" />
      <g
         id="g1787-8-4-2-5-6-6"
         transform="translate(337.248,458.4639)"
         style="fill:#00aa88;fill-opacity:1;stroke:none;stroke-opacity:1" />
      <g
         id="g1791-7-4-0-0-2-2"
         transform="translate(329.8545,455.7339)"
         style="fill:#00aa88;fill-opacity:1;stroke:none;stroke-opacity:1">
        <path
           d="m -131.06401,-9.0141523 c 0,0 -2.55799,3.439936 -7.99641,3.351389 -5.43807,-0.08855 -8.4963,-4.5614167 -8.17245,-7.7611107 3.5e-4,-3.696758 1.44004,-6.826956 1.52858,-8.701969 0.0885,-1.875014 -0.0885,-2.626431 -0.35278,-3.351389 -0.26423,-0.724959 -0.29386,-2.293056 -0.29386,-2.293056 0,0 3.88726,-4.137378 5.17384,-4.586111 1.53423,-0.795161 2.88078,-2.040467 5.05672,-1.763889 2.17558,0.276578 2.79223,0.723195 3.64525,1.470025 0.85302,0.746831 0.11747,1.646414 0.11747,1.646414 0,0 -0.46002,1.134533 0.81386,1.881364 1.27388,0.746831 2.12619,4.7625 2.12619,4.7625 0,0 1.29893,2.603853 1.1169,3.938058 -0.18204,1.334206 -0.35278,2.588331 -0.35278,2.588331 0,0 0.26423,1.196269 0.58808,2.057752 0.32385,0.861837 -0.11747,1.911703 -0.29386,2.704748 -0.14304,0.326318 -0.57204,1.129102 -0.57204,1.129102 0.20081,0.0299 0.48245,0.04671 0.8659,0.04671 h 5.40914 l 0.99977,0.117828 2.35233,1.293283 c 0,0 -2.21192,1.1338277 -2.41124,1.1761607 -0.19932,0.04198 -1.11725,0.23495 -1.11725,0.23495 z"
           style="fill:#00aa88;fill-opacity:1;fill-rule:nonzero;stroke:none;stroke-width:0.352778;stroke-opacity:1"
           id="path1717-0-9-4-2-6-5-5" />
        <path
           d="m -119.09162,-12.859572 0.41875,-0.766233 0.0938,-0.182034 0.0332,-0.148519 -0.0938,-0.187678 -0.17921,-0.187325 -0.2286,-0.104775 h -0.20955 l -0.32526,0.463197 -0.36936,0.628298 c 0,0 -0.0219,0.242711 0.0773,0.380294 0.0995,0.137936 0.2868,0.220486 0.35842,0.253647 0.0716,0.03316 0.15346,0.07161 0.21167,0.09913 0.0586,0.02752 0.21272,-0.248003 0.21272,-0.248003"
           style="fill:#00aa88;fill-opacity:1;fill-rule:nonzero;stroke:none;stroke-width:0.352778;stroke-opacity:1"
           id="path1761-8-7-4-3-4-4-2" />
        <path
           d="m -118.20417,-11.652402 1.80234,-1.802342 c 0,0 0.23707,-0.192969 -0.14887,-0.595489 -0.38559,-0.402166 -0.248,-0.407811 -1.27318,0.573264 -1.02517,0.981075 -1.22907,1.06927 -0.72213,1.593145 0.28681,0.297391 0.34184,0.231422 0.34184,0.231422"
           style="fill:#00aa88;fill-opacity:1;fill-rule:nonzero;stroke:none;stroke-width:0.352778;stroke-opacity:1"
           id="path1769-7-5-7-7-6-4-6" />
        <path
           d="m -117.75769,-10.070402 2.4638,-0.07726 c 0,0 0.35842,0.07161 0.33091,-0.50165 -0.0275,-0.573264 0.18203,-0.551039 -2.40877,-0.512586 -0.68898,0.0056 -0.87101,-0.0053 -0.84349,0.738716 0.006,0.214842 -0.055,0.369359 0.18732,0.352778 z"
           style="fill:#00aa88;fill-opacity:1;fill-rule:nonzero;stroke:none;stroke-width:0.352778;stroke-opacity:1"
           id="path1777-9-9-6-5-2-9-91" />
        <path
           d="m -117.57097,-7.3215623 -1.29999,-1.264003 c 0,0 -0.41133,-0.323497 0.0882,-0.72778 0.49953,-0.404284 0.36054,-0.455436 1.52153,0.757061 0.8449,0.896761 0.67592,0.896761 0.21272,1.300691 -0.30868,0.264584 -0.52246,-0.06597 -0.52246,-0.06597"
           style="fill:#00aa88;fill-opacity:1;fill-rule:nonzero;stroke:none;stroke-width:0.352778;stroke-opacity:1"
           id="path1785-2-2-3-9-5-9-33" />
        <path
           d="m -120.17923,-8.2846423 0.43356,-0.198261 c 0,0 0.30163,-0.352778 0.54399,0.602544 0.40428,0.771525 0.20602,0.801159 -0.13229,0.984956 -0.33832,0.183444 -0.42616,-0.191206 -0.63924,-0.507295 -0.21343,-0.316088 -0.55139,-0.690738 -0.25012,-0.845255 0.30127,-0.154164 0.0441,-0.03669 0.0441,-0.03669"
           style="fill:#00aa88;fill-opacity:1;fill-rule:nonzero;stroke:none;stroke-width:0.352778;stroke-opacity:1"
           id="path1793-0-2-1-2-8-3-1" />
      </g>
      <g
         id="g1795-8-7-1-6-6-5"
         transform="translate(329.8545,455.7339)"
         style="fill:#00aa88;fill-opacity:1;stroke:none;stroke-opacity:1" />
    </g>
    <g
       id="g2011-5-2-2-0-2"
       clip-path="url(#clipPath1713-3-9-3-2-2-6)"
       transform="matrix(-1.564735,0,0,-1.5647345,650.5766,912.90554)"
       style="fill:#005544;fill-opacity:1;stroke:none;stroke-opacity:1">
      <g
         id="g1951-9-9-8-5-6"
         transform="translate(299,453.666)"
         style="fill:#005544;fill-opacity:1;stroke:none;stroke-opacity:1" />
      <g
         id="g1953-6-3-4-0-94"
         transform="translate(299,453.666)"
         style="fill:#005544;fill-opacity:1;stroke:none;stroke-opacity:1" />
      <g
         id="g1955-2-1-7-2-4"
         transform="translate(283.667,447.3384)"
         style="fill:#005544;fill-opacity:1;stroke:none;stroke-opacity:1" />
      <g
         id="g1957-1-9-2-9-6"
         transform="translate(283.667,447.3384)"
         style="fill:#005544;fill-opacity:1;stroke:none;stroke-opacity:1" />
      <g
         id="g1959-7-4-4-4-0"
         transform="translate(288.0156,436.25)"
         style="fill:#005544;fill-opacity:1;stroke:none;stroke-opacity:1" />
      <g
         id="g1961-8-7-0-3-74"
         transform="translate(288.0156,436.25)"
         style="fill:#005544;fill-opacity:1;stroke:none;stroke-opacity:1" />
      <g
         id="g1963-5-8-6-5-37"
         transform="translate(301.042,429.604)"
         style="fill:#005544;fill-opacity:1;stroke:none;stroke-opacity:1" />
      <g
         id="g1965-7-4-2-1-9"
         transform="translate(301.042,429.604)"
         style="fill:#005544;fill-opacity:1;stroke:none;stroke-opacity:1" />
      <g
         id="g1967-4-5-9-7-0"
         transform="translate(305.8545,434)"
         style="fill:#005544;fill-opacity:1;stroke:none;stroke-opacity:1" />
      <g
         id="g1969-1-0-9-4-0"
         transform="translate(296.5469,412.7656)"
         style="fill:#005544;fill-opacity:1;stroke:none;stroke-opacity:1" />
      <g
         id="g1971-8-3-0-3-226"
         transform="translate(296.5469,412.7656)"
         style="fill:#005544;fill-opacity:1;stroke:none;stroke-opacity:1" />
      <g
         id="g1973-5-6-8-1-90"
         transform="translate(332.9375,442.7656)"
         style="fill:#005544;fill-opacity:1;stroke:none;stroke-opacity:1" />
      <g
         id="g1975-9-1-1-4-3"
         transform="translate(332.9375,442.7656)"
         style="fill:#005544;fill-opacity:1;stroke:none;stroke-opacity:1" />
      <g
         id="g1977-7-0-3-6-5"
         transform="translate(335.4531,446.1875)"
         style="fill:#005544;fill-opacity:1;stroke:none;stroke-opacity:1" />
      <g
         id="g1979-5-6-1-9-5"
         transform="translate(335.4531,446.1875)"
         style="fill:#005544;fill-opacity:1;stroke:none;stroke-opacity:1" />
      <g
         id="g1981-3-3-1-4-8"
         transform="translate(336.7187,450.6719)"
         style="fill:#005544;fill-opacity:1;stroke:none;stroke-opacity:1" />
      <g
         id="g1983-8-2-0-2-7"
         transform="translate(336.7187,450.6719)"
         style="fill:#005544;fill-opacity:1;stroke:none;stroke-opacity:1" />
      <g
         id="g1985-8-0-3-2-1"
         transform="translate(337.248,458.4639)"
         style="fill:#005544;fill-opacity:1;stroke:none;stroke-opacity:1" />
      <g
         id="g1987-3-6-4-6-7"
         transform="translate(337.248,458.4639)"
         style="fill:#005544;fill-opacity:1;stroke:none;stroke-opacity:1" />
      <g
         id="g2007-1-1-0-4-0"
         transform="translate(329.8545,455.7339)"
         style="fill:#005544;fill-opacity:1;stroke:none;stroke-opacity:1">
        <path
           d="m -131.06401,-9.0141523 c 0,0 -2.55799,3.439936 -7.99641,3.351389 7.66084,-3.310035 6.93,-7.3261757 7.78297,-12.6209417 0.57664,-3.579449 -2.35816,-7.09642 -2.70242,-10.6179 -0.16532,-1.691062 -8.07968,1.54941 -8.62427,2.791828 1.09972,-2.171809 5.81607,-4.753806 7.94821,-4.522521 0.11953,-1.121836 -0.58143,-2.749335 -1.46444,-3.48799 2.17558,0.276578 2.79223,0.723195 3.64525,1.470025 0.85302,0.746831 0.11747,1.646414 0.11747,1.646414 0,0 -0.46002,1.134533 0.81386,1.881364 1.27388,0.746831 2.12619,4.7625 2.12619,4.7625 0,0 1.29893,2.603853 1.1169,3.938058 -0.18204,1.334206 -0.35278,2.588331 -0.35278,2.588331 0,0 0.26423,1.196269 0.58808,2.057752 0.32385,0.861837 -0.11747,1.911703 -0.29386,2.704748 -0.72284,1.491343 -1.50703,2.934972 -2.70475,4.0569437 z"
           style="fill:#005544;fill-opacity:1;fill-rule:nonzero;stroke:none;stroke-width:0.352778;stroke-opacity:1"
           id="path1989-8-5-3-1-6" />
      </g>
      <g
         id="g2009-9-5-9-2-0"
         transform="translate(329.8545,455.7339)"
         style="fill:#005544;fill-opacity:1;stroke:none;stroke-opacity:1" />
    </g>
    <g
       id="g3123-6-4-1-8-4"
       clip-path="url(#clipPath1713-3-9-3-2-2-6)"
       transform="matrix(-1.564735,0,0,-1.5647345,650.5766,912.90554)"
       style="stroke:none;stroke-opacity:1">
      <g
         id="g3063-4-7-9-8-13"
         transform="translate(299,453.666)"
         style="stroke:none;stroke-opacity:1" />
      <g
         id="g3065-3-6-6-9-0"
         transform="translate(299,453.666)"
         style="stroke:none;stroke-opacity:1" />
      <g
         id="g3067-3-5-9-2-29"
         transform="translate(283.667,447.3384)"
         style="stroke:none;stroke-opacity:1" />
      <g
         id="g3069-3-6-3-8-6"
         transform="translate(283.667,447.3384)"
         style="stroke:none;stroke-opacity:1" />
      <g
         id="g3071-8-9-3-8-09"
         transform="translate(288.0156,436.25)"
         style="stroke:none;stroke-opacity:1" />
      <g
         id="g3073-6-3-8-8-3"
         transform="translate(288.0156,436.25)"
         style="stroke:none;stroke-opacity:1" />
      <g
         id="g3075-0-7-0-6-54"
         transform="translate(301.042,429.604)"
         style="stroke:none;stroke-opacity:1" />
      <g
         id="g3077-4-4-5-8-3"
         transform="translate(301.042,429.604)"
         style="stroke:none;stroke-opacity:1" />
      <g
         id="g3079-8-5-6-3-64"
         transform="translate(305.8545,434)"
         style="stroke:none;stroke-opacity:1" />
      <g
         id="g3081-8-2-6-8-3"
         transform="translate(296.5469,412.7656)"
         style="stroke:none;stroke-opacity:1" />
      <g
         id="g3083-8-5-4-3-1"
         transform="translate(296.5469,412.7656)"
         style="stroke:none;stroke-opacity:1" />
      <g
         id="g3085-9-4-0-3-9"
         transform="translate(332.9375,442.7656)"
         style="stroke:none;stroke-opacity:1" />
      <g
         id="g3087-7-7-0-3-1"
         transform="translate(332.9375,442.7656)"
         style="stroke:none;stroke-opacity:1" />
      <g
         id="g3089-7-4-4-8-0"
         transform="translate(335.4531,446.1875)"
         style="stroke:none;stroke-opacity:1" />
      <g
         id="g3091-6-4-6-0-9"
         transform="translate(335.4531,446.1875)"
         style="stroke:none;stroke-opacity:1" />
      <g
         id="g3093-4-3-2-4-4"
         transform="translate(336.7187,450.6719)"
         style="stroke:none;stroke-opacity:1" />
      <g
         id="g3095-3-0-6-7-56"
         transform="translate(336.7187,450.6719)"
         style="stroke:none;stroke-opacity:1" />
      <g
         id="g3097-0-7-7-6-2"
         transform="translate(337.248,458.4639)"
         style="stroke:none;stroke-opacity:1" />
      <g
         id="g3099-3-8-5-8-5"
         transform="translate(337.248,458.4639)"
         style="stroke:none;stroke-opacity:1" />
      <g
         id="g3119-0-6-6-9-9"
         transform="translate(329.8545,455.7339)"
         style="stroke:none;stroke-opacity:1">
        <path
           d="m -130.34364,-17.502692 c 0.0734,-1.029053 1.16875,-1.190625 1.31551,-1.190625 0.14711,0 0.30868,-0.03669 0.1838,0.881944 -0.0222,0.48507 0.24976,1.293637 0.36018,1.470025 0.11007,0.176389 0.14676,0.389467 -0.16192,0.389467 -0.30833,0 -1.77095,-0.521758 -1.69757,-1.550811"
           style="fill:#ffffff;fill-opacity:1;fill-rule:nonzero;stroke:none;stroke-width:0.352778;stroke-opacity:1"
           id="path3107-9-8-9-0-1" />
      </g>
      <g
         id="g3121-2-8-8-6-7"
         transform="translate(329.8545,455.7339)"
         style="stroke:none;stroke-opacity:1" />
    </g>
    <g
       id="g11535-5-4-7-8-74"
       clip-path="url(#clipPath1713-3-9-3-2-2-6)"
       transform="matrix(-1.564735,0,0,-1.5647345,650.5766,912.90554)"
       style="stroke:none;stroke-opacity:1">
      <g
         id="g11477-4-3-2-7-1"
         transform="translate(299,453.666)"
         style="stroke:none;stroke-opacity:1" />
      <g
         id="g11479-0-1-8-9-19"
         transform="translate(299,453.666)"
         style="stroke:none;stroke-opacity:1" />
      <g
         id="g11481-5-4-2-0-1"
         transform="translate(283.667,447.3384)"
         style="stroke:none;stroke-opacity:1" />
      <g
         id="g11483-9-9-9-3-3"
         transform="translate(283.667,447.3384)"
         style="stroke:none;stroke-opacity:1" />
      <g
         id="g11485-4-2-9-3-8"
         transform="translate(288.0156,436.25)"
         style="stroke:none;stroke-opacity:1" />
      <g
         id="g11487-6-0-6-3-7"
         transform="translate(288.0156,436.25)"
         style="stroke:none;stroke-opacity:1" />
      <g
         id="g11489-9-6-0-7-4"
         transform="translate(301.042,429.604)"
         style="stroke:none;stroke-opacity:1" />
      <g
         id="g11491-2-8-2-3-93"
         transform="translate(301.042,429.604)"
         style="stroke:none;stroke-opacity:1" />
      <g
         id="g11493-2-9-7-2-1"
         transform="translate(305.8545,434)"
         style="stroke:none;stroke-opacity:1" />
      <g
         id="g11495-4-2-6-6-38"
         transform="translate(296.5469,412.7656)"
         style="stroke:none;stroke-opacity:1" />
      <g
         id="g11497-7-6-1-5-7"
         transform="translate(296.5469,412.7656)"
         style="stroke:none;stroke-opacity:1" />
      <g
         id="g11499-7-6-3-2-93"
         transform="translate(332.9375,442.7656)"
         style="stroke:none;stroke-opacity:1" />
      <g
         id="g11501-5-4-2-6-88"
         transform="translate(332.9375,442.7656)"
         style="stroke:none;stroke-opacity:1" />
      <g
         id="g11503-4-9-1-5-4"
         transform="translate(335.4531,446.1875)"
         style="stroke:none;stroke-opacity:1" />
      <g
         id="g11505-8-5-5-8-0"
         transform="translate(335.4531,446.1875)"
         style="stroke:none;stroke-opacity:1" />
      <g
         id="g11507-1-0-9-7-08"
         transform="translate(336.7187,450.6719)"
         style="stroke:none;stroke-opacity:1" />
      <g
         id="g11509-2-4-9-9-6"
         transform="translate(336.7187,450.6719)"
         style="stroke:none;stroke-opacity:1" />
      <g
         id="g11511-8-8-1-6-8"
         transform="translate(337.248,458.4639)"
         style="stroke:none;stroke-opacity:1" />
      <g
         id="g11513-9-7-4-0-23"
         transform="translate(337.248,458.4639)"
         style="stroke:none;stroke-opacity:1" />
      <g
         id="g11531-3-1-9-4-8"
         transform="translate(329.8545,455.7339)"
         style="stroke:none;stroke-opacity:1">
        <path
           d="m -134.93906,-15.158132 c 0,0 0.6671,0.01658 0.90417,-0.07161 0.23671,-0.08819 0.75494,-0.413455 0.91475,-0.5842 0.15981,-0.171097 0.35842,-0.4191 0.39159,-0.606425 0.0328,-0.187325 0.0441,-0.683683 -0.0773,-0.826911 -0.12136,-0.143228 -0.86008,-0.766233 -0.99237,-0.826911 -0.13229,-0.06068 -0.44097,-0.159808 -0.57326,-0.176389 -0.13229,-0.01658 -0.52917,-0.03845 -0.77717,-0.03281 -0.248,0.0053 -1.14088,0.176389 -1.4605,0.435328 -0.31997,0.258938 -0.69462,0.688974 -0.71684,0.909461 -0.0219,0.220486 -0.1323,0.457552 0.27587,0.959202 0.40781,0.50165 0.82126,0.595136 1.12995,0.69462 0.30868,0.09913 0.98107,0.126647 0.98107,0.126647"
           style="fill:#ffffff;fill-opacity:1;fill-rule:nonzero;stroke:none;stroke-width:0.352778;stroke-opacity:1"
           id="path11519-6-7-1-1-5" />
      </g>
      <g
         id="g11533-8-2-0-0-0"
         transform="translate(329.8545,455.7339)"
         style="stroke:none;stroke-opacity:1" />
    </g>
    <ellipse
       style="fill:#ffffff;stroke:none;stroke-width:3.50913;stroke-linejoin:round;stroke-opacity:1;paint-order:fill markers stroke"
       id="path22477-0-7-7-4-59"
       cx="353.85501"
       cy="216.59932"
       rx="4.8132057"
       ry="4.4581542" />
    <g
       id="g1619-9-2-2-5-8-2"
       transform="matrix(0.73243797,0,0,0.73243776,251.04867,158.45245)">
      <path
         style="fill:#ffffff;fill-opacity:1;stroke:#000000;stroke-width:2;stroke-linecap:butt;stroke-linejoin:round;stroke-miterlimit:4;stroke-dasharray:none;stroke-opacity:1"
         d="m 159.06354,117.69517 4.98328,-2.87709 -7.39199,-12.80331 9.42049,-3.6443 -25.74516,-18.964754 3.53231,32.002464 7.73502,-6.25798 z"
         id="path869-7-1-2-8-7-6" />
      <path
         style="fill:none;stroke:#000000;stroke-width:2;stroke-linecap:round;stroke-linejoin:miter;stroke-miterlimit:4;stroke-dasharray:none;stroke-opacity:1"
         d="m 145.94243,78.617057 6.63312,-0.845259"
         id="path1377-36-0-6-7-0-8" />
      <path
         style="fill:none;stroke:#000000;stroke-width:2;stroke-linecap:round;stroke-linejoin:miter;stroke-miterlimit:4;stroke-dasharray:none;stroke-opacity:1"
         d="m 143.86362,74.845586 4.12044,-5.266389"
         id="path1377-3-1-5-1-0-8-52" />
      <path
         style="fill:none;stroke:#000000;stroke-width:2;stroke-linecap:round;stroke-linejoin:miter;stroke-miterlimit:4;stroke-dasharray:none;stroke-opacity:1"
         d="m 139.63446,73.793377 -0.81204,-6.637279"
         id="path1377-3-6-2-1-0-4-6-8" />
      <path
         style="fill:none;stroke:#000000;stroke-width:2;stroke-linecap:round;stroke-linejoin:miter;stroke-miterlimit:4;stroke-dasharray:none;stroke-opacity:1"
         d="m 135.93772,75.99573 -5.2967,-4.081409"
         id="path1377-3-6-7-9-1-6-8-2-36" />
      <path
         style="fill:none;stroke:#000000;stroke-width:2;stroke-linecap:round;stroke-linejoin:miter;stroke-miterlimit:4;stroke-dasharray:none;stroke-opacity:1"
         d="m 134.80065,80.209976 -6.63243,0.85075"
         id="path1377-3-6-7-5-31-0-1-0-4-7" />
      <path
         style="fill:none;stroke:#000000;stroke-width:2;stroke-linecap:round;stroke-linejoin:miter;stroke-miterlimit:4;stroke-dasharray:none;stroke-opacity:1"
         d="m 136.91173,83.814708 -4.05142,5.31967"
         id="path1377-3-6-7-5-3-9-8-5-4-7-8" />
    </g>
  </g>
</svg>
